<svg width="10" height="12" viewBox="0 0 10 12" fill="none" xmlns="http://www.w3.org/2000/svg">
<path d="M1.8 0.400004C1.72121 0.294947 1.62249 0.206437 1.50949 0.13953C1.39649 0.0726221 1.27142 0.0286263 1.14142 0.0100546C1.01142 -0.00851713 0.879033 -0.00130106 0.751819 0.0312905C0.624606 0.0638821 0.505058 0.121211 0.4 0.200004C0.294943 0.278797 0.206433 0.377512 0.139526 0.490511C0.072618 0.60351 0.0286222 0.728581 0.0100505 0.858583C-0.00852122 0.988585 -0.00130516 1.12097 0.0312864 1.24819C0.063878 1.3754 0.121207 1.49495 0.2 1.6L3.5 6L0.2 10.4C0.121207 10.5051 0.063878 10.6246 0.0312864 10.7518C-0.00130515 10.879 -0.00852122 11.0114 0.0100505 11.1414C0.0286222 11.2714 0.072618 11.3965 0.139526 11.5095C0.206433 11.6225 0.294943 11.7212 0.4 11.8C0.505058 11.8788 0.624606 11.9361 0.751819 11.9687C0.879033 12.0013 1.01142 12.0085 1.14142 11.99C1.27142 11.9714 1.39649 11.9274 1.50949 11.8605C1.62249 11.7936 1.72121 11.7051 1.8 11.6L4.75 7.667L7.7 11.6C7.77879 11.7051 7.87751 11.7936 7.99051 11.8605C8.10351 11.9274 8.22858 11.9714 8.35858 11.99C8.48858 12.0085 8.62097 12.0013 8.74818 11.9687C8.87539 11.9361 8.99494 11.8788 9.1 11.8C9.20506 11.7212 9.29357 11.6225 9.36047 11.5095C9.42738 11.3965 9.47138 11.2714 9.48995 11.1414C9.50852 11.0114 9.50131 10.879 9.46871 10.7518C9.43612 10.6246 9.37879 10.5051 9.3 10.4L6 6L9.3 1.6C9.45913 1.38783 9.52746 1.12113 9.48995 0.858583C9.45244 0.596032 9.31217 0.359134 9.1 0.200004C8.88783 0.0408742 8.62113 -0.0274527 8.35858 0.0100546C8.09603 0.0475619 7.85913 0.187831 7.7 0.400004L4.75 4.333L1.8 0.400004Z" fill="#CCCCCC"/>
</svg>
